<?xml version="1.0" encoding="UTF-8"?>
<svg width="60px" height="60px" viewBox="0 0 60 60" version="1.1" xmlns="http://www.w3.org/2000/svg" xmlns:xlink="http://www.w3.org/1999/xlink">
    <!-- Generator: Sketch 47.1 (45422) - http://www.bohemiancoding.com/sketch -->
    <title>Egen Logo</title>
    <desc>Created with Sketch.</desc>
    <defs>
        <linearGradient x1="6.69827492%" y1="24.9997536%" x2="93.3017251%" y2="75.0002738%" id="linearGradient-1">
            <stop stop-color="#F8ABA4" offset="0%"></stop>
            <stop stop-color="#ED4435" offset="50%"></stop>
            <stop stop-color="#F4921B" offset="100%"></stop>
        </linearGradient>
    </defs>
    <g id="Page-1" stroke="none" stroke-width="1" fill="none" fill-rule="evenodd">
        <g id="Egen---Uptake-Case-Study" transform="translate(-515.000000, -26.000000)" fill-rule="nonzero">
            <g id="Egen-Logo" transform="translate(515.000000, 26.000000)">
                <circle id="Oval" fill="#FFFFFF" cx="30" cy="30" r="22"></circle>
                <path d="M27.1248631,29.6056955 L27.1248631,32.3493976 C27.1084337,33.203724 26.8455641,33.9266156 26.3362541,34.4852136 C26.237678,34.6002191 26.1391019,34.6987952 26.0240964,34.7973713 C25.5805038,35.1752464 25.0876232,35.388828 24.5125958,35.4216867 L24.2004381,35.4216867 C23.6254107,35.388828 23.1489595,35.1423877 22.7053669,34.6659365 C22.3603505,34.2552026 22.1467689,33.762322 22.1139102,33.203724 C22.1139102,33.1215772 22.0974808,33.0394304 22.0974808,32.9572837 L22.0810515,32.7765608 L22.0810515,30.4107338 L22.0810515,28.7185104 C22.0810515,27.8806134 22.3439211,27.1577218 22.8532311,26.5991238 C23.3789704,26.0240964 24.0197152,25.6955093 24.7426068,25.6462212 L25.0054765,25.6462212 C25.5805038,25.67908 26.0569551,25.9255203 26.5005476,26.4019715 C26.9112815,26.8784228 27.1248631,27.4534502 27.1248631,28.1106243 L27.1248631,29.6056955 Z M34.9616648,25.6297919 L34.6987952,25.6297919 C33.9759036,25.6626506 33.3515882,25.9748083 32.8258488,26.5662651 C32.3165389,27.1248631 32.0536692,27.8313253 32.0372399,28.6856517 L32.0372399,30.558598 L34.8959474,30.558598 C35.4874042,30.5421687 35.9967141,30.3121577 36.4238773,29.8357065 C36.8510405,29.3592552 37.0810515,28.7842278 37.0810515,28.1106243 C37.0810515,27.4534502 36.8674699,26.8784228 36.456736,26.4019715 C36.0131435,25.9090909 35.5202629,25.6626506 34.9616648,25.6297919 Z M60,30 C60,46.5607886 46.577218,60 30,60 C13.422782,60 0,46.5607886 0,30 C0,13.4392114 13.4392114,0 30,0 C46.5607886,0 60,13.4392114 60,30 Z M13.6363636,27.6834611 L13.6363636,22.9682366 L19.3702081,22.9682366 C19.8466594,22.9682366 20.109529,22.6889376 20.109529,22.1796276 C20.109529,21.6538883 19.8466594,21.3745893 19.3702081,21.3745893 L12.3713034,21.3745893 C12.1084337,21.3745893 11.6484118,21.4731654 11.6484118,22.1631982 L11.6484118,36.0295728 C11.6484118,36.7196057 12.0920044,36.8181818 12.3713034,36.8181818 L17.2672508,36.8181818 L19.3702081,36.8181818 C19.8466594,36.8181818 20.0930997,36.5388828 20.0930997,36.0295728 C20.0930997,35.5202629 19.83023,35.2409639 19.3702081,35.2409639 L17.924425,35.2409639 L13.6363636,35.2409639 L13.6363636,29.2442497 L18.253012,29.2442497 C18.7294633,29.2442497 18.9759036,28.9649507 18.9759036,28.4720701 C18.9759036,27.9627601 18.713034,27.6834611 18.253012,27.6834611 L13.6363636,27.6834611 L13.6363636,27.6834611 Z M29.1292442,27.7491785 C29.1292442,27.6670318 29.1128149,27.584885 29.0799562,27.4863089 L29.0799562,27.4534502 C29.0799562,27.4205915 29.0799562,27.4041621 29.0635268,27.3713034 L29.0635268,27.3713034 C29.0635268,27.354874 29.0635268,27.3220153 29.0470975,27.2891566 L29.0470975,27.2727273 C29.0470975,27.2562979 29.0470975,27.2234392 29.0306681,27.1905805 L29.0306681,27.1248631 L29.0142388,27.1084337 C29.0142388,27.0920044 29.0142388,27.0920044 28.9978094,27.075575 L28.9978094,26.9112815 L28.9649507,26.9112815 C28.9649507,26.8948521 28.9485214,26.8619934 28.932092,26.8291347 L28.932092,26.796276 L28.9156627,26.7634173 C28.8992333,26.7305586 28.8828039,26.6976999 28.8828039,26.6648412 C28.8663746,26.6319825 28.8663746,26.6155531 28.8499452,26.5826944 L28.8499452,26.5334064 L28.8170865,26.5005476 L28.8170865,26.3526835 L28.7513691,26.3526835 L28.7513691,26.3198248 L28.7185104,26.286966 L28.7020811,26.1555312 L28.652793,26.1555312 C28.6363636,26.1062432 28.6199343,26.0733844 28.6035049,26.0569551 L28.6035049,25.9912377 L28.5706462,25.958379 C28.5542169,25.9419496 28.5542169,25.9255203 28.5377875,25.8926616 L28.5213582,25.8762322 C28.5049288,25.8598028 28.5049288,25.8433735 28.4884995,25.8269441 C28.4720701,25.8105148 28.4556407,25.7940854 28.4392114,25.7447974 L28.4392114,25.6297919 L28.3570646,25.6297919 L28.3406353,25.6133625 C28.3406353,25.5969332 28.3242059,25.5805038 28.3077766,25.5640745 L28.2913472,25.5476451 L28.2913472,25.5312158 L28.1763417,25.3997809 L28.1763417,25.3997809 C28.1763417,25.3997809 28.1599124,25.3833516 28.1599124,25.3833516 L28.0777656,25.3012048 L28.0777656,25.1861993 L28.0449069,25.1861993 L28.0449069,25.1533406 L27.9463308,25.1533406 L27.8477547,25.0547645 L27.8313253,25.0547645 C27.8148959,25.0383352 27.7984666,25.0219058 27.7656079,24.9890471 L27.7491785,24.9726177 C27.7327492,24.9561884 27.7163198,24.939759 27.6998905,24.9233297 L27.6998905,24.890471 L27.6506024,24.8576123 L27.6506024,24.7590361 L27.5355969,24.7590361 L27.5355969,24.6933187 L27.4698795,24.6933187 L27.4698795,24.6440307 L27.354874,24.6440307 L27.354874,24.5783133 L27.2562979,24.5783133 L27.2398686,24.5618839 L27.1741512,24.5454545 L27.1084337,24.4961665 L27.0920044,24.4961665 C27.0591457,24.4633078 27.026287,24.4468784 26.9934283,24.4468784 L26.9769989,24.4304491 C26.9605696,24.4140197 26.9277108,24.3975904 26.8948521,24.3975904 C26.8948521,24.3975904 26.8784228,24.3975904 26.8784228,24.381161 C26.8619934,24.381161 26.8619934,24.3647317 26.8455641,24.3647317 C26.8291347,24.3483023 26.8127054,24.3483023 26.796276,24.3483023 C26.7798467,24.3318729 26.7634173,24.3318729 26.7305586,24.3318729 L26.6812705,24.2990142 L26.6319825,24.2990142 L26.5991238,24.2661555 L26.5334064,24.2661555 L26.516977,24.2661555 C26.4676889,24.2332968 26.4019715,24.2168675 26.3526835,24.2168675 L26.286966,24.1840088 C26.2541073,24.1675794 26.2212486,24.1675794 26.1883899,24.1675794 L26.1719606,24.1675794 C26.1391019,24.1511501 26.1226725,24.1511501 26.0898138,24.1511501 L26.0569551,24.1347207 L26.007667,24.1347207 L25.9912377,24.1182913 L25.8433735,24.1182913 C25.8105148,24.101862 25.7776561,24.101862 25.7447974,24.101862 L25.6462212,24.101862 C25.6133625,24.0854326 25.5805038,24.0854326 25.5476451,24.0854326 L24.1840088,24.0854326 C23.033954,24.1511501 22.0646221,24.6276013 21.2924425,25.5312158 C20.5038335,26.4019715 20.109529,27.4863089 20.109529,28.7349398 L20.109529,32.5958379 L20.109529,32.9901424 C20.109529,33.0558598 20.109529,33.1215772 20.1259584,33.1544359 C20.1259584,33.3023001 20.1423877,33.4337349 20.1588171,33.5651698 C20.2738226,34.4687842 20.618839,35.2409639 21.2267251,35.8652793 C21.9331873,36.6046002 22.7875137,36.9824754 23.7732749,36.9824754 L25.0711939,36.9824754 C25.7447974,36.9496166 26.3691128,36.7524644 26.9605696,36.3910186 C27.0098576,36.3581599 27.075575,36.3253012 27.1248631,36.2760131 L27.1248631,37.524644 C27.1084337,37.9025192 27.0427163,38.2311062 26.9112815,38.5596933 C26.4676889,39.8740416 25.3012048,40.9090909 23.8061336,41.3526835 C24.3318729,41.5005476 24.890471,41.5826944 25.4654984,41.5826944 C25.4983571,41.5826944 25.5312158,41.5826944 25.5640745,41.5662651 C25.5805038,41.5662651 25.6133625,41.5498357 25.6626506,41.5498357 C26.5498357,41.5005476 27.3220153,41.1226725 27.9956188,40.4326396 C28.6363636,39.7590361 29.0142388,38.9211391 29.1292442,37.9682366 C29.1456736,37.9189485 29.1456736,37.8696605 29.1456736,37.7710843 L29.1456736,30.5750274 L29.1456736,27.7491785 L29.1292442,27.7491785 Z M39.0690033,28.094195 C39.0690033,26.9769989 38.7075575,26.0240964 37.9846659,25.2519168 C37.2946331,24.4797371 36.4403067,24.0690033 35.4545455,24.0525739 L35.4545455,24.0525739 L34.1894852,24.0525739 C33.1051479,24.0854326 32.135816,24.5290252 31.3307777,25.3833516 C30.5421687,26.2212486 30.1150055,27.2398686 30.0492881,28.4392114 L30.0492881,32.8094195 C30.0657174,33.8773275 30.4107338,34.7973713 31.067908,35.5038335 C31.7415115,36.2595838 32.5629792,36.6703176 33.5158817,36.736035 C33.5651698,36.7524644 33.5980285,36.7524644 33.6308872,36.7524644 C33.6801752,36.7688938 33.713034,36.7688938 33.7294633,36.7688938 L37.2289157,36.7688938 C37.4917853,36.7688938 37.9518072,36.6703176 37.9518072,35.9802848 C37.9518072,35.4874042 37.7053669,35.2081051 37.2289157,35.2081051 L34.4687842,35.2081051 C34.4359255,35.1916758 34.4030668,35.1916758 34.3866375,35.1916758 C34.3537788,35.1752464 34.32092,35.1752464 34.2880613,35.1752464 C33.6966046,35.1752464 33.1872946,34.9452355 32.7272727,34.4687842 C32.3001095,34.0087623 32.0865279,33.4173056 32.0536692,32.7437021 L32.0536692,32.1029573 L35.4216867,32.1029573 C36.4238773,32.1029573 37.2946331,31.7086528 38.0010953,30.9200438 C38.7075575,30.1314348 39.0690033,29.1785323 39.0690033,28.094195 Z M49.0087623,27.8477547 L48.992333,27.6834611 L48.992333,27.6834611 C48.992333,27.6670318 48.992333,27.6341731 48.9759036,27.6177437 L48.9759036,27.5027382 L48.9594743,27.4863089 C48.9594743,27.4863089 48.9594743,27.4698795 48.9594743,27.4534502 C48.9594743,27.4370208 48.9594743,27.3877327 48.9430449,27.3384447 L48.9430449,27.3384447 C48.8608981,26.8455641 48.6966046,26.3855422 48.4501643,25.958379 L48.4337349,25.9255203 L48.4008762,25.9090909 C48.3844469,25.9090909 48.3844469,25.8926616 48.3680175,25.8762322 C48.3515882,25.8433735 48.3351588,25.8269441 48.3187295,25.7940854 L48.3187295,25.7776561 L48.3023001,25.7447974 C48.3023001,25.728368 48.2858708,25.728368 48.2858708,25.7119387 L48.2858708,25.6955093 L48.2365827,25.6462212 C48.2201533,25.6133625 48.203724,25.5969332 48.1872946,25.5805038 L48.1708653,25.5640745 C48.1708653,25.5476451 48.1544359,25.5476451 48.1380066,25.5312158 L48.1215772,25.5147864 L48.1051479,25.3997809 L48.0230011,25.3997809 L48.0065717,25.3833516 L48.0065717,25.3669222 L47.9408543,25.2847755 L47.924425,25.1861993 L47.8258488,25.1861993 L47.8094195,25.16977 L47.7929901,25.0711939 L47.7108434,25.0711939 L47.6615553,25.0219058 L47.6615553,24.9561884 L47.5794085,24.9561884 C47.5629792,24.939759 47.5301205,24.9233297 47.5136911,24.9069003 C47.5136911,24.9069003 47.5136911,24.9069003 47.4808324,24.8740416 C47.3986857,24.8083242 47.3165389,24.7261774 47.2015334,24.6768894 L47.2015334,24.5947426 L47.1029573,24.5947426 L47.0536692,24.5454545 L47.0043812,24.5454545 L46.9879518,24.5454545 C46.9879518,24.5454545 46.9879518,24.5454545 46.9715225,24.5290252 L46.9715225,24.4633078 L46.9222344,24.4633078 L46.905805,24.4468784 L46.8893757,24.4468784 L46.8729463,24.4304491 L46.8400876,24.4304491 C46.8400876,24.4304491 46.8400876,24.4304491 46.8236583,24.4304491 C46.8072289,24.4140197 46.7907996,24.4140197 46.7743702,24.4140197 L46.7250821,24.3647317 L46.6922234,24.3647317 L46.6757941,24.3483023 L46.6429354,24.3483023 C46.626506,24.3318729 46.5936473,24.3318729 46.577218,24.3154436 C46.5607886,24.3154436 46.5443593,24.2990142 46.5443593,24.2990142 L46.5115005,24.2661555 L46.4786418,24.2661555 L46.4622125,24.2497262 L46.3964951,24.2497262 C46.3964951,24.2497262 46.3964951,24.2497262 46.3800657,24.2497262 C46.3636364,24.2332968 46.3307777,24.2332968 46.3143483,24.2168675 L46.2979189,24.2004381 L46.2157722,24.2004381 L46.1829135,24.1840088 L46.1829135,24.1840088 C46.1664841,24.1675794 46.1336254,24.1675794 46.1171961,24.1675794 L46.1007667,24.1511501 L46.067908,24.1511501 L46.0514786,24.1347207 L45.9857612,24.1347207 L45.9693319,24.1182913 L45.8543264,24.1182913 C45.8214677,24.101862 45.788609,24.101862 45.7721796,24.101862 L45.7393209,24.101862 C45.7064622,24.0854326 45.6736035,24.0854326 45.6407448,24.0854326 L45.5421687,24.0854326 L45.50931,24.0690033 L44.0799562,24.0690033 C43.2913472,24.101862 42.584885,24.3483023 41.9441402,24.8083242 C41.8455641,24.3647317 41.4841183,24.2825849 41.2541073,24.2825849 L40.6955093,24.2825849 C40.4326396,24.2825849 39.9890471,24.381161 39.9890471,25.0711939 L39.9890471,36.0131435 C39.9890471,36.7031763 40.4326396,36.8017525 40.6955093,36.8017525 L41.2541073,36.8017525 C41.516977,36.8017525 41.9605696,36.7031763 41.9605696,36.0131435 L41.9605696,28.6856517 C41.9769989,27.8477547 42.2398686,27.1412924 42.7491785,26.5826944 C43.2749179,25.9912377 43.8828039,25.67908 44.6221249,25.6297919 L44.8849945,25.6297919 C45.4600219,25.6626506 45.9364732,25.9090909 46.3800657,26.3855422 C46.7907996,26.8619934 47.0043812,27.4370208 47.0043812,28.094195 L47.0043812,35.9967141 C47.0043812,36.5060241 47.2672508,36.7853231 47.7272727,36.7853231 L48.2694414,36.7853231 C48.7458927,36.7853231 48.992333,36.5060241 48.992333,35.9967141 L48.992333,27.8477547 L49.0087623,27.8477547 Z" id="Shape" fill="url(#linearGradient-1)"></path>
            </g>
        </g>
    </g>
</svg>